<!DOCTYPE svg PUBLIC "-//W3C//DTD SVG 1.1//EN" "http://www.w3.org/Graphics/SVG/1.1/DTD/svg11.dtd">

<!-- Uploaded to: SVG Repo, www.svgrepo.com, Transformed by: SVG Repo Mixer Tools -->
<svg fill="#f0eeed" width="200px" height="300px" viewBox="0 0 24 24" id="soda-bottle-2" data-name="Flat Color" xmlns="http://www.w3.org/2000/svg" class="icon flat-color">

<g id="SVGRepo_bgCarrier" stroke-width="0"/>

<g id="SVGRepo_tracerCarrier" stroke-linecap="round" stroke-linejoin="round"/>

<g id="SVGRepo_iconCarrier">

<path id="primary" d="M15.79,17.38a22.44,22.44,0,0,1,.07-4.49,4.3,4.3,0,0,0-1.18-3.67A2.1,2.1,0,0,1,14,7.67V3a1,1,0,0,0-1-1H11a1,1,0,0,0-1,1V7.67a2.15,2.15,0,0,1-.69,1.56A4.12,4.12,0,0,0,8.1,12.49a29.44,29.44,0,0,1,.13,4.69L8,19.83a2,2,0,0,0,.52,1.52A2,2,0,0,0,10,22h4a2,2,0,0,0,1.47-.65A2,2,0,0,0,16,19.83Z" style="fill: #f0eeed;"/>

</g>

</svg>